<svg width="92" height="92" viewBox="0 0 92 92" fill="none" xmlns="http://www.w3.org/2000/svg">
<path d="M70.4567 73.1913C56.0354 73.9188 41.5405 71.0087 30.7544 60.4365C21.0187 50.8938 19.1147 37.9703 33.3488 31.8526C40.0868 28.9565 50.0116 30.0268 54.3489 36.5381C59.1809 43.7923 48.8696 48.7173 43.0903 48.4692C29.5922 47.8899 16.8425 36.8463 16.2914 22.053C15.6388 4.53436 33.5483 6.65797 33.4956 6.76566" stroke="white" stroke-width="2.05268" stroke-miterlimit="1.5" stroke-linecap="round" stroke-linejoin="round"/>
<path d="M59.9843 85.4001C60.4164 83.8626 61.4363 82.6727 62.3932 81.4331C65.5346 77.3625 70.2191 73.9826 75.4122 73.1757C69.7957 72.2459 62.8173 69.1457 60.593 63.5925" stroke="white" stroke-width="2.05268" stroke-miterlimit="1.5" stroke-linecap="round" stroke-linejoin="round"/>
</svg>
